<?xml version="1.0" encoding="UTF-8"?>
<svg width="100px" height="100px" viewBox="0 0 100 100" version="1.1" xmlns="http://www.w3.org/2000/svg" xmlns:xlink="http://www.w3.org/1999/xlink">
    <!-- Generator: Sketch 43.2 (39069) - http://www.bohemiancoding.com/sketch -->
    <title>brand_icon</title>
    <desc>Created with Sketch.</desc>
    <defs></defs>
    <g id="Main-Pages" stroke="none" stroke-width="1" fill="none" fill-rule="evenodd">
        <g id="01About_DesktopHD-Copy" transform="translate(-325.000000, -2138.000000)">
            <g id="Design-Method-Toolkit" transform="translate(325.000000, 1736.000000)">
                <g id="Brand" transform="translate(0.000000, 402.000000)">
                    <g id="brand_icon">
                        <rect id="Rectangle-5" fill="#FFFFFF" x="0" y="0" width="100" height="100"></rect>
                        <path d="M37.0226719,20.0002813 C28.4842031,20.4737656 20.0773594,23.9718125 13.5517969,30.4966719 C-0.5173125,44.566625 -0.5173125,67.3774063 13.5517969,81.4473594 C20.5874062,88.4818438 29.8069219,91.9997188 39.0288281,91.9997188 C48.2483437,91.9997188 57.47025,88.4818438 64.50375,81.4473594 C71.0273437,74.9226406 74.5275,66.5170625 75,57.9764844 L37.0226719,20.0002813 Z M67.3227187,54.5443906 C65.0157656,54.1455781 62.7569062,53.4995469 60.56625,52.6117813 C56.4727969,50.9507188 52.7967187,48.5105938 49.643625,45.3576406 C46.2599062,41.9750469 43.7068594,38.007875 42.0501562,33.5660938 C41.3336719,31.6413594 40.8019687,29.6748594 40.4549062,27.6764375 L67.3227187,54.5443906 Z M69.2740312,69.2615 C67.6260469,73.013375 65.3055937,76.3992031 62.3811562,79.3249063 C59.2279219,82.4778594 55.552125,84.9189688 51.4586719,86.5791875 C47.4990937,88.1841406 43.32,88.9970938 39.0288281,88.9970938 C34.7375156,88.9970938 30.5561719,88.1841406 26.5989844,86.5791875 C22.5032812,84.9189688 18.8294531,82.4778594 15.6763594,79.3249063 C12.5234062,76.1706875 10.0800469,72.495875 8.42109375,68.4011563 C6.81501562,64.4438281 6.00192187,60.262625 6.00192187,55.9724375 C6.00192187,51.681125 6.814875,47.4999219 8.42109375,43.5425938 C10.0800469,39.4480156 12.5234062,35.7730625 15.6763594,32.6189844 C18.6009375,29.6934219 21.9869062,27.3753594 25.7375156,25.7285 C28.9631719,24.3122656 32.3644687,23.430125 35.8757344,23.0972656 L37.0401094,24.2617813 C37.4422969,30.7161875 39.5736094,37.0838281 43.4341875,42.6099688 C46.410069,46.5950432 48.7297031,48.6337813 48.7297031,48.6337813 C55.0005937,54.3553906 62.8009219,57.4634844 70.7372344,57.9587656 L71.904,59.1256719 C71.5724062,62.6345469 70.689,66.0380938 69.2740312,69.2615 Z" id="Shape" stroke="#FFFFFF" fill="#000000" fill-rule="nonzero"></path>
                        <text id="FPO" font-family="PTSans-NarrowBold, PT Sans Narrow" font-size="20" font-style="condensed" font-weight="bold" fill="#000000">
                            <tspan x="24.59" y="64.71875">FPO</tspan>
                        </text>
                    </g>
                </g>
            </g>
        </g>
    </g>
</svg>