<?xml version="1.0" encoding="UTF-8"?>
<svg width="87px" height="87px" viewBox="0 0 87 87" version="1.1" xmlns="http://www.w3.org/2000/svg" xmlns:xlink="http://www.w3.org/1999/xlink">
    <!-- Generator: Sketch 43.2 (39069) - http://www.bohemiancoding.com/sketch -->
    <title>Complication Icon</title>
    <desc>Created with Sketch.</desc>
    <defs></defs>
    <g id="Case-Studies" stroke="none" stroke-width="1" fill="none" fill-rule="evenodd">
        <g id="02AWorks_Swiftbank_DesktopHD" transform="translate(-327.000000, -3505.000000)" stroke="#1D1D1D">
            <g id="Challenges/-Impact" transform="translate(313.000000, 3372.000000)">
                <g id="Complication-Icon" transform="translate(0.000000, 133.000000)">
                    <g>
                        <circle id="Oval-2" stroke-width="2" cx="50" cy="50" r="30"></circle>
                        <g id="Group-2" transform="translate(15.000000, 15.000000)" fill="#FFFFFF">
                            <g id="Group" transform="translate(30.000000, 0.000000)">
                                <circle id="Oval-3-Copy" cx="5.5" cy="5.5" r="5.5"></circle>
                                <circle id="Oval-3-Copy-2" cx="5.5" cy="65.5" r="5.5"></circle>
                            </g>
                            <g id="Group" transform="translate(35.500000, 35.500000) rotate(90.000000) translate(-35.500000, -35.500000) translate(30.000000, 0.000000)">
                                <circle id="Oval-3-Copy" cx="5.5" cy="5.5" r="5.5"></circle>
                                <circle id="Oval-3-Copy-2" cx="5.5" cy="65.5" r="5.5"></circle>
                            </g>
                        </g>
                        <g id="Group-2" transform="translate(50.500000, 50.500000) rotate(45.000000) translate(-50.500000, -50.500000) translate(15.000000, 15.000000)" fill="#FFFFFF">
                            <g id="Group" transform="translate(30.000000, -0.000000)">
                                <circle id="Oval-3-Copy" cx="5.5" cy="5.5" r="5.5"></circle>
                                <circle id="Oval-3-Copy-2" cx="5.5" cy="65.5" r="5.5"></circle>
                            </g>
                            <g id="Group" transform="translate(35.500000, 35.500000) rotate(90.000000) translate(-35.500000, -35.500000) translate(30.000000, -0.000000)">
                                <circle id="Oval-3-Copy" cx="5.5" cy="5.5" r="5.5"></circle>
                                <circle id="Oval-3-Copy-2" cx="5.5" cy="65.5" r="5.5"></circle>
                            </g>
                        </g>
                        <polygon id="Triangle" fill="#FFFFFF" points="22 31 29 43 15 43"></polygon>
                        <polygon id="Triangle-Copy" fill="#FFFFFF" points="93 0 100 12 86 12"></polygon>
                        <polygon id="Triangle-Copy-5" fill="#FFFFFF" points="57 51 64 63 50 63"></polygon>
                    </g>
                </g>
            </g>
        </g>
    </g>
</svg>