<?xml version="1.0" encoding="UTF-8"?>
<svg width="100px" height="100px" viewBox="0 0 100 100" version="1.1" xmlns="http://www.w3.org/2000/svg" xmlns:xlink="http://www.w3.org/1999/xlink">
    <!-- Generator: Sketch 43.2 (39069) - http://www.bohemiancoding.com/sketch -->
    <title>digitalprod_icon</title>
    <desc>Created with Sketch.</desc>
    <defs></defs>
    <g id="Main-Pages" stroke="none" stroke-width="1" fill="none" fill-rule="evenodd">
        <g id="01About_DesktopHD-Copy" transform="translate(-329.000000, -1808.000000)">
            <g id="Design-Method-Toolkit" transform="translate(325.000000, 1736.000000)">
                <g id="Digital" transform="translate(4.000000, 72.000000)">
                    <g id="digitalprod_icon">
                        <rect id="Rectangle-5" fill="#FFFFFF" x="0" y="0" width="100" height="100"></rect>
                        <g id="&lt;/&gt;" transform="translate(8.556962, 41.101266)" fill-rule="nonzero" fill="#000000">
                            <path d="M7.2761127,4.693916 C6.93768885,4.26302992 6.26084116,4.17685271 5.83781135,4.52156157 L0.338423846,9.2613084 C0.0846059616,9.43366283 0,9.7783717 0,10.0369033 C0,10.3816122 0.169211923,10.6401438 0.338423846,10.8124983 L5.83781135,15.5522451 C6.00702327,15.7245995 6.26084116,15.8107768 6.51465904,15.8107768 C6.85308289,15.8107768 7.10690078,15.6384223 7.2761127,15.4660679 C7.61453655,15.0351818 7.61453655,14.3457641 7.10690078,14.0010552 L2.53817885,10.1230806 L7.10690078,6.24510587 C7.61453655,5.8142198 7.61453655,5.12480207 7.2761127,4.693916 Z" id="Shape"></path>
                            <path d="M25.786861,9.2613084 L20.2874735,4.52156157 C19.8644437,4.17685271 19.187596,4.26302992 18.8491721,4.693916 C18.5107483,5.12480207 18.5107483,5.8142198 19.0183841,6.15892866 L23.587106,10.0369033 L19.0183841,13.914878 C18.5953543,14.2595869 18.5107483,14.9490046 18.8491721,15.3798907 C19.0183841,15.6384223 19.3568079,15.7245995 19.6106258,15.7245995 C19.8644437,15.7245995 20.1182616,15.6384223 20.2874735,15.4660679 L25.786861,10.7263211 C26.0406789,10.5539666 26.1252848,10.2092578 26.1252848,9.95072613 C26.1252848,9.69219448 26.0406789,9.51984005 25.786861,9.2613084 Z" id="Shape"></path>
                            <path d="M16.4575736,0.0448344871 C15.9499378,-0.127519943 15.3576961,0.217188917 15.1884842,0.734252209 L9.35067281,19.7794168 C9.18146088,20.2964801 9.51988473,20.8997206 10.0275205,21.072075 C10.1121265,21.072075 10.1967324,21.1582522 10.3659443,21.1582522 C10.7889742,21.1582522 11.212004,20.8997206 11.3812159,20.3826573 L17.1344213,1.42366993 C17.3036332,0.820429424 17.0498153,0.217188917 16.4575736,0.0448344871 Z" id="Shape"></path>
                        </g>
                        <rect id="Rectangle" fill="#000000" x="18.8607595" y="15.8101266" width="5.62025316" height="1.87341772" rx="0.936708861"></rect>
                        <circle id="Oval-2" fill="#000000" cx="22.1392405" cy="82.7848101" r="2.34177215"></circle>
                        <rect id="Rectangle-2" stroke="#000000" stroke-width="2" x="2" y="13" width="39.3417722" height="74" rx="3"></rect>
                        <path d="M2.46835443,20.4936709 L41.1579457,20.4936709" id="Line" stroke="#000000" stroke-width="2" stroke-linecap="square"></path>
                        <path d="M2.46835443,78.5696203 L41.1579457,78.5696203" id="Line-Copy" stroke="#000000" stroke-width="2" stroke-linecap="square"></path>
                    </g>
                </g>
            </g>
        </g>
    </g>
</svg>