<?xml version="1.0" encoding="utf-8"?>
<!-- Generator: Adobe Illustrator 21.0.0, SVG Export Plug-In . SVG Version: 6.00 Build 0)  -->
<svg version="1.1" xmlns="http://www.w3.org/2000/svg" xmlns:xlink="http://www.w3.org/1999/xlink" x="0px" y="0px"
	 viewBox="0 0 226 104" style="enable-background:new 0 0 226 104;" xml:space="preserve">
<style type="text/css">
	.st0{fill:none;stroke:#EB008B;stroke-miterlimit:10;}
	.st1{fill:#F1F1F2;stroke:#231F20;stroke-width:0.7917;stroke-miterlimit:10;}
	.st2{fill:#F1F1F2;stroke:#231F20;stroke-miterlimit:10;}
	.st3{fill:#E03E3D;stroke:#231F20;stroke-miterlimit:10;}
	.st4{fill:#FF5C5C;stroke:#231F20;stroke-miterlimit:10;}
	.st5{fill:#FF7373;stroke:#231F20;stroke-miterlimit:10;}
	.st6{fill:#FEBF51;stroke:#231F20;stroke-miterlimit:10;}
	.st7{fill:#FECB72;stroke:#231F20;stroke-miterlimit:10;}
	.st8{fill:#EDE9AA;stroke:#231F20;stroke-miterlimit:10;}
	.st9{fill:#C2BE87;stroke:#231F20;stroke-miterlimit:10;}
	.st10{fill:#1C8DBB;stroke:#231F20;stroke-miterlimit:10;}
	.st11{fill:#E64A4A;stroke:#231F20;stroke-miterlimit:10;}
	.st12{fill:#FFFFFF;}
	.st13{opacity:0.2;}
	.st14{fill-rule:evenodd;clip-rule:evenodd;fill:#BE1E2D;}
	.st15{display:none;}
	.st16{fill:#BE1E2D;}
	.st17{fill-rule:evenodd;clip-rule:evenodd;}
</style>
<g id="BKG">
</g>
<g id="Artwork">
	<g>
		<g>
			<g>
				<path class="st12" d="M148.6,103c-11.9,0-23.1-3.8-32.5-11.1l-2.7-2.1c-9,2.4-16.7,2.8-20.5,2.8l-0.7,0
					C83,92.5,75,91.3,71.1,90.6l-0.7-0.1l-5.8-3.2l1.6-1.9c-12,1.8-22.3,2.2-29,2.2c-5.5,0-9-0.3-9.6-0.3l-21.9,0L114.3,48
					c4.6-2.4,7.6-3.6,7.9-3.8l0.1-0.1l21.7-7.8v-4.6l-19.6-8.2l17.8-10.3C144.4,10.3,152.1,1,164,1c0,0,0,0,0,0
					c4.2,0,8.4,1.2,12.6,3.5l0.3,0.2c3.1,2,6,4.3,8.7,6.8L218.2,43l-20-12.8c2.4,6.2,3.7,12.9,3.7,19.5c0,3.8-0.4,7.6-1.2,11.4
					c-2.5,11.7-9.1,22.3-18.4,29.9C172.8,98.8,160.8,103,148.6,103z"/>
				<path d="M164,2c4,0,8.1,1.1,12.1,3.3l0.1,0l0.1,0l0.1,0.1l0,0l0,0c3,1.9,5.9,4.2,8.5,6.7l25.4,24.6L196,27.7
					c3.2,6.9,4.9,14.5,4.9,22.1c0,3.7-0.4,7.5-1.2,11.2v0c-2.5,11.5-8.9,21.9-18.1,29.4c-9.3,7.6-21,11.7-33,11.7
					c-11.7,0-22.7-3.8-31.9-10.9l-3.1-2.4c-8.9,2.4-16.6,2.9-20.7,2.9c-0.2,0-0.4,0-0.7,0c-9.2-0.1-17.1-1.3-21-2l-0.6-0.1l-0.5-0.3
					L69.9,89l-3.8-2.1l2.6-3.1c-12.9,2.1-24.1,2.6-31.5,2.6c-5.4,0-8.9-0.2-9.5-0.3h-0.9H11.5l14.5-5.2L100.5,54l14.2-5.1
					c4.6-2.4,7.5-3.6,7.9-3.8l0.1,0l0.1,0c13.3-4.8,19.4-7,22.3-8v-3.3v-0.7v-2l-11.7-4.9l-6.7-2.8l6.3-3.6l8.3-4.8l1.2-0.7l0.2,0.1
					C144.2,12,151.9,2,164,2 M164,0L164,0c-12.1,0-20.1,9.3-22.5,12.5l-0.1,0.1l-1.2,0.7l-8.3,4.8l-6.3,3.6l-3.5,2l3.7,1.6l6.7,2.8
					l10.5,4.4v0.7v0.7v1.9l-8,2.9l-13,4.7l-0.1,0l0,0l0,0l-0.1,0c-0.3,0.1-3.3,1.4-7.9,3.8l-14.1,5.1L25.2,79l-14.5,5.2L0,88.1h11.5
					h15.4h0.8c0.8,0.1,4.3,0.3,9.6,0.3c6.3,0,15.6-0.3,26.5-1.8L63,87.5l2.1,1.2l3.8,2.1l0.3,0.1l0.5,0.3l0.3,0.2l0.3,0.1l0.6,0.1
					c4,0.7,12,2,21.3,2.1c0.2,0,0.5,0,0.7,0c3.8,0,11.4-0.4,20.3-2.7l2.3,1.8c9.6,7.4,21,11.3,33.1,11.3c12.5,0,24.6-4.3,34.3-12.2
					c9.5-7.7,16.1-18.6,18.7-30.5c0.8-3.8,1.3-7.7,1.3-11.6c0-5.8-0.9-11.6-2.8-17.1l9.2,5.9L226,49.2l-14.2-13.8l-25.4-24.6
					c-2.7-2.6-5.7-5-8.9-7l0,0l0,0l0,0l0,0l-0.1-0.1l0,0l0,0l0,0l-0.1,0C172.8,1.2,168.4,0,164,0L164,0L164,0z"/>
			</g>
		</g>
		<g>
			<g>
				<g>
					<path d="M164,5.6c3.1,0,6.6,0.8,10.4,2.9l0.1,0.1c2.9,1.8,5.5,3.9,8,6.3c-4.3-2.7-8.6-4.2-13.1-4.5c-0.6,0-1.1,0-1.7,0
						c-10.2,0-14.6,5.5-14.9,5.8c0,0,5.2-3.1,14.1-3.1c0.7,0,1.5,0,2.3,0.1c7.7,0.4,16.9,4.3,22,13.3c3.8,7,6,15,6,23.5
						c0,3.6-0.4,7-1.1,10.4l0,0l0,0c-4.8,21.9-24.2,38.3-47.5,38.3c-11.2,0-21.5-3.8-29.7-10.1c7.2-2.3,14.2-6,19.9-11.7
						c5.9-5.9,9.1-11.8,10.6-18c0,0-4.9,8.9-13.2,15.3C122.9,84,106.2,88,92.9,88c-0.2,0-0.4,0-0.6,0c0,0,0,0,0,0
						c-8.8-0.1-16.3-1.2-20.3-2l-0.3-0.1c0.3-0.3,0.6-0.6,0.8-1c24-25.1,51.5-36.5,51.5-36.5c14.5-5.2,24.6-8.9,24.7-8.9v-5.8
						c2.2,4.6,6.9,10.9,15.8,10.9c0,0-7.6-1.5-12.6-8.8c-2.4-3.5-3.2-7.1-3.2-7.2l0,0v0l-13.9-5.8l8.3-4.8c0.1,0,5.3-0.3,6.6,5.8
						l0.1,0.3c1.4-6.3-4.2-7.5-4.3-7.5C145.4,16.7,152.4,5.6,164,5.6 M164.7,25.9c1.5,0,2.8-1.2,2.8-2.8c0-1.5-1.2-2.8-2.8-2.8
						c-1.2,0-2.2,0.7-2.6,1.7h-5.8l5.8,2.1C162.5,25.2,163.5,25.9,164.7,25.9 M148.6,40.4L148.6,40.4l0-0.5
						C148.6,40.1,148.6,40.2,148.6,40.4 M164,2L164,2c-12.1,0-19.8,10-21.4,12.3l-0.2-0.1l-1.2,0.7l-8.3,4.8l-6.3,3.6l6.7,2.8
						l11.7,4.9v2v0.7v3.3c-2.8,1-9,3.2-22.3,8l-0.1,0l-0.1,0c-1.1,0.5-28.4,12-52.7,37.3l-0.1,0.1l-0.1,0.1l-0.1,0.2
						c-0.2,0.3-0.5,0.6-0.7,0.8l-2.8,3.3l3.8,2.1l0.3,0.1l0.5,0.3l0.6,0.1c3.9,0.7,11.8,1.9,21,2c0.2,0,0.5,0,0.7,0
						c4.2,0,11.8-0.4,20.7-2.9l3.1,2.4c9.2,7.1,20.2,10.9,31.9,10.9c12,0,23.7-4.2,33-11.7c9.1-7.5,15.6-17.9,18.1-29.4l-3.3-0.7
						l0,0l3.3,0.7c0.8-3.7,1.2-7.4,1.2-11.2c0-7.6-1.7-15.2-4.9-22.1l14.4,9.2L185,12.2c-2.6-2.5-5.5-4.8-8.5-6.7l0,0l0,0l-0.1-0.1
						l-0.1,0l-0.1,0C172.1,3.1,168.1,2,164,2L164,2z"/>
					<path d="M101.4,56.6c-10.1,6.5-20.7,14.8-29.6,24c-14.1,2.6-26.6,3.1-34.5,3.1c-5.9,0-9.4-0.3-9.4-0.3h-1
						C26.8,83.4,67.1,68.9,101.4,56.6 M122.8,46l-22.3,8L25.9,80.9l-14.5,5.2h15.4h0.9c0.7,0.1,4.1,0.3,9.5,0.3c8,0,20.6-0.5,35-3.2
						l0.9-0.2l0.6-0.6c8.1-8.4,18.2-16.6,29.1-23.6L122.8,46L122.8,46z"/>
				</g>
				<g>
					<path d="M112.2,60.7c12.5-5.3,25.9-1.7,25.9-1.7s-6.8,12.2-19.2,17.4C106.5,81.8,93,78.2,93,78.2S99.8,66,112.2,60.7z"/>
					<path class="st12" d="M119.8,61.1c7.6-3.2,15.9-1,15.9-1s-4.2,7.5-11.8,10.7c-7.6,3.2-15.9,1-15.9,1S112.1,64.4,119.8,61.1z"/>
				</g>
			</g>
		</g>
	</g>
</g>
</svg>
