<?xml version="1.0" encoding="UTF-8"?>
<svg width="32px" height="32px" viewBox="0 0 32 32" version="1.1" xmlns="http://www.w3.org/2000/svg" xmlns:xlink="http://www.w3.org/1999/xlink" style="background: #FBCF17;">
    <!-- Generator: Sketch 43.2 (39069) - http://www.bohemiancoding.com/sketch -->
    <title>Favicon</title>
    <desc>Created with Sketch.</desc>
    <defs></defs>
    <g id="Main-Pages" stroke="none" stroke-width="1" fill="none" fill-rule="evenodd">
        <g id="Favicon">
            <g id="Furybird-Logo" transform="translate(14.000000, 16.500000) rotate(-30.000000) translate(-14.000000, -16.500000) translate(-5.000000, 7.000000)">
                <path d="M37.3459169,6.32609158 L34.6412533,4.65709282 C35.2439229,5.90632566 35.5605694,7.27929768 35.5605694,8.66647898 C35.5605694,9.34319611 35.4840108,10.0246497 35.3333434,10.692486 L34.7135246,10.5616422 L35.3333434,10.692486 C34.3601299,15.0132923 30.3300831,18.1493996 25.7506516,18.1493996 C23.5629119,18.1493996 21.4915413,17.4661699 19.7619285,16.1754933 L19.18682,15.7462545 C17.5135544,16.1891105 16.074252,16.2643013 15.2915164,16.2643013 L15.1647353,16.2637092 C13.4449221,16.2477238 11.9615219,16.0257037 11.2302337,15.8942679 L11.1212142,15.8747301 L11.0250566,15.8226294 L10.9748341,15.7953949 L10.2625325,15.4105602 L10.7525078,14.8528458 C8.33202987,15.2335362 6.22391117,15.320568 4.83973096,15.320568 C3.71891248,15.320568 3.05377102,15.2660991 3.06908275,15.2660991 L2.88411707,15.2660991 L1.59872116e-14,15.2660991 L2.71385066,14.3211818 L16.7136697,9.44621342 L19.3962845,8.51195302 C20.2610909,8.07560961 20.8159879,7.84944518 20.893159,7.8186584 C23.3822335,6.9518921 24.5379627,6.54988779 25.0781605,6.36161479 L25.0781605,5.76304872 L25.0781605,5.65233472 L25.0781605,5.27519665 L22.8781714,4.38652438 L21.6262845,3.88150276 L22.8010003,3.22609956 L24.3536095,2.35933326 L24.5851228,2.2302656 L24.6292206,2.24033051 C24.9299429,1.8217487 26.3698578,-0.00059190925 28.6464055,1.44229507e-07 C29.4021924,1.44229507e-07 30.1677788,0.204258595 30.9205034,0.608039068 L30.957864,0.629352993 L30.9737882,0.638233795 C31.5464468,0.987545349 32.0860321,1.39783841 32.5772323,1.85786396 L37.3459169,6.32609158 Z" id="Fill-1" stroke="#FBCF17" stroke-width="1.040502" fill="#020302"></path>
                <path d="M34.9134194,8.67262165 C34.9134194,9.32137971 34.8392581,9.95236359 34.7019677,10.561426 L34.7031935,10.5620184 L34.7019677,10.561426 C33.8065161,14.5357356 30.1487097,17.5123206 25.7689032,17.5123206 C23.6666452,17.5123206 21.7310968,16.8256442 20.1865806,15.6720991 C21.5472258,15.2532206 22.8594516,14.5878733 23.9259032,13.5522303 C25.0285161,12.4810389 25.6359032,11.4110324 25.909871,10.2811862 C25.909871,10.2811862 24.9880645,11.8974528 23.4245484,13.0545528 C20.9324839,14.8977367 17.796871,15.6258862 15.3023548,15.6258862 L15.1828387,15.6258862 L15.1822258,15.6258862 C13.5359677,15.6104819 12.1213871,15.4031163 11.3607742,15.2668475 L11.311129,15.2395937 C11.3626129,15.1809389 11.4153226,15.1228765 11.4680323,15.0642216 C15.9820645,10.5075109 21.1359677,8.4356324 21.1359677,8.4356324 C23.8517419,7.48945283 25.7646129,6.82351305 25.7682903,6.82292057 L25.7682903,5.76713348 C26.1826129,6.59896574 27.0578387,7.74303133 28.7384194,7.74303133 C28.7384194,7.74303133 27.3109677,7.4681238 26.3726129,6.14868617 C25.9190645,5.51177756 25.7731935,4.8541324 25.7719677,4.84702272 L25.7682903,4.84820767 L25.7682903,4.84643025 L23.1530323,3.79064316 L24.7067419,2.92385498 C24.7226774,2.92740982 25.707,2.86993993 25.9490968,3.97075498 L25.960129,4.03059477 C26.2249032,2.88712165 25.1756129,2.67679369 25.1572258,2.67205391 C25.1572258,2.67205391 26.4878387,0.649350682 28.6667097,0.649350682 C29.2569355,0.649350682 29.9102903,0.798061435 30.6163548,1.17665176 L30.6371935,1.18850122 C31.1765484,1.5173238 31.6766774,1.89887649 32.1320645,2.32545713 C31.3334516,1.8325195 30.5084839,1.55879692 29.6632903,1.51258402 C29.5548065,1.50665928 29.4493871,1.50369692 29.3476452,1.50369692 C27.4249677,1.50369692 26.6122581,2.49786681 26.5534194,2.55355928 C26.5534194,2.55355928 27.5267097,1.98715498 29.2103548,1.98715498 C29.3500968,1.98715498 29.4953548,1.99130229 29.6449032,1.99959692 C31.0852258,2.08017326 32.8179032,2.78817864 33.7795484,4.40800014 C34.5021613,5.67293025 34.9134194,7.12626681 34.9134194,8.67262165 L34.9134194,8.67262165 Z M4.84377419,14.8444141 C3.73012903,14.8444141 3.07125806,14.7893141 3.07125806,14.7893141 L2.88616129,14.7893141 C2.88616129,14.7893141 10.4622581,12.1516238 16.8965161,9.91148294 C15.3354516,10.8813614 13.7320968,12.0686776 12.2795161,13.3898926 C11.9626452,13.6736872 11.6463871,13.9693313 11.3313548,14.2768249 C8.67441935,14.7448786 6.3453871,14.8444141 4.84377419,14.8444141 L4.84377419,14.8444141 Z M37.3723871,6.33057541 L32.6003226,1.85918079 C32.1087742,1.39882918 31.5688065,0.988245306 30.9957419,0.638686166 L30.9798065,0.629799069 L30.9424194,0.608470037 C30.1891613,0.20440337 29.4230323,1.44331755e-07 28.6667097,1.44331755e-07 C26.3885484,-0.000592328787 24.9476129,1.82303993 24.6466774,2.24191842 L24.6025484,2.23184638 L24.370871,2.36100552 L22.8171613,3.22838617 L21.6416129,3.88425391 L22.8943871,4.38963348 L25.0959355,5.27893563 L25.0959355,5.656341 L25.0959355,5.76713348 L25.0959355,6.3661238 C24.5553548,6.55453025 23.3988065,6.9568195 20.9079677,7.82420014 C20.8307419,7.85500875 20.2754516,8.08133348 19.4100323,8.51798617 L16.7255161,9.45290875 L2.71577419,14.3313324 L1.77635684e-15,15.2769195 L2.88616129,15.2769195 L3.07125806,15.2769195 C3.05593548,15.2769195 3.72154839,15.331427 4.84316129,15.331427 C6.22832258,15.331427 8.33793548,15.2443335 10.760129,14.8633733 L10.2698065,15.4214829 L10.9826129,15.8065905 L11.032871,15.8338442 L11.1290968,15.8859819 L11.2381935,15.9055335 C11.97,16.0370625 13.4544516,16.2592399 15.1754839,16.2752367 L15.3023548,16.2758292 C16.0856452,16.2758292 17.5259677,16.2005851 19.2004194,15.7574152 L19.7759355,16.1869582 C21.5067742,17.4785496 23.5796129,18.1622636 25.7689032,18.1622636 C30.3515806,18.1622636 34.3844839,15.0239335 35.3583871,10.7000647 L34.738129,10.5691281 L35.3583871,10.7000647 C35.5091613,10.031755 35.5857742,9.34981842 35.5857742,8.67262165 C35.5857742,7.28445713 35.2689032,5.91051197 34.6658065,4.66039369 L37.3723871,6.33057541 Z" id="Fill-1" fill="#FBCF17"></path>
                <path d="M28.7941935,3.8977029 C28.576,3.8977029 28.3890645,4.02745452 28.3106129,4.21112118 L27.2147419,4.21112118 L28.3081613,4.58971151 C28.3853871,4.77693301 28.5729355,4.90964699 28.7941935,4.90964699 C29.0834839,4.90964699 29.3176129,4.68332226 29.3176129,4.40367495 C29.3176129,4.12462011 29.0834839,3.8977029 28.7941935,3.8977029" id="Fill-6" fill="#FBCF17"></path>
                <path d="M23.5276387,11.1155659 C23.5276387,11.1155659 22.7480258,12.4705519 21.3113806,13.0588777 C19.8747355,13.6472035 18.3253161,13.2472842 18.3253161,13.2472842 C18.3253161,13.2472842 19.104929,11.8922982 20.5409613,11.3033799 C21.9776065,10.7150541 23.5276387,11.1155659 23.5276387,11.1155659 M19.1263806,11.2316906 C16.7857032,12.1903122 15.5151548,14.3984595 15.5151548,14.3984595 C15.5151548,14.3984595 18.0397032,15.0513648 20.3803806,14.0915584 C22.7210581,13.1329369 23.9916065,10.9259745 23.9916065,10.9259745 C23.9916065,10.9259745 21.4670581,10.2724767 19.1263806,11.2316906" id="Fill-8" fill="#FBCF17"></path>
            </g>
        </g>
    </g>
</svg>