<?xml version="1.0" encoding="UTF-8"?>
<svg width="56px" height="56px" viewBox="0 0 56 56" version="1.1" xmlns="http://www.w3.org/2000/svg" xmlns:xlink="http://www.w3.org/1999/xlink">
    <!-- Generator: Sketch 43.2 (39069) - http://www.bohemiancoding.com/sketch -->
    <title>linkedin_icon</title>
    <desc>Created with Sketch.</desc>
    <defs></defs>
    <g id="Main-Pages" stroke="none" stroke-width="1" fill="none" fill-rule="evenodd">
        <g id="01About_DesktopHD-Copy" transform="translate(-755.000000, -4526.000000)">
            <g id="Footer" transform="translate(623.000000, 4304.000000)">
                <g id="linkedin_icon" transform="translate(132.000000, 222.000000)">
                    <circle id="Oval" fill="#FFFFFF" cx="28" cy="28" r="28"></circle>
                    <path d="M41.59,39.586 C41.59,40.682 40.681,41.569 39.559,41.569 L16.143,41.569 C15.02,41.569 14.112,40.682 14.112,39.586 L14.112,15.897 C14.112,14.803 15.02,13.914 16.143,13.914 L39.559,13.914 C40.681,13.914 41.59,14.803 41.59,15.897 L41.59,39.586 Z M27.876,3 C14.276,3 3.251,14.026 3.251,27.625 C3.251,41.227 14.276,52.25 27.876,52.25 C41.474,52.25 52.5,41.227 52.5,27.625 C52.5,14.026 41.474,3 27.876,3 L27.876,3 Z" id="Fill-201" fill="#FBCF17"></path>
                    <path d="M33.141,24 C30.939,24 29.953,25.209 29.4,26.061 L29.4,26.102 L29.373,26.102 C29.383,26.09 29.393,26.075 29.4,26.061 L29.4,24.293 L25.251,24.293 C25.305,25.463 25.251,36.778 25.251,36.778 L29.4,36.778 L29.4,29.805 C29.4,29.43 29.428,29.061 29.537,28.793 C29.838,28.049 30.521,27.274 31.667,27.274 C33.17,27.274 33.769,28.42 33.769,30.098 L33.769,36.778 L37.92,36.778 L37.92,29.62 C37.92,25.784 35.872,24 33.141,24" id="Fill-202" fill="#FBCF17"></path>
                    <path d="M20.598,19 C19.179,19 18.251,19.933 18.251,21.158 C18.251,22.355 19.151,23.316 20.543,23.316 L20.571,23.316 C22.018,23.316 22.919,22.355 22.919,21.158 C22.892,19.933 22.018,19 20.598,19" id="Fill-203" fill="#FBCF17"></path>
                    <polygon id="Fill-204" fill="#FBCF17" points="18.251 37.485 22.402 37.485 22.402 25 18.251 25"></polygon>
                </g>
            </g>
        </g>
    </g>
</svg>