<?xml version="1.0" encoding="UTF-8"?>
<svg width="131px" height="38px" viewBox="0 0 131 38" version="1.1" xmlns="http://www.w3.org/2000/svg" xmlns:xlink="http://www.w3.org/1999/xlink">
    <!-- Generator: Sketch 43.2 (39069) - http://www.bohemiancoding.com/sketch -->
    <title>Fill 2</title>
    <desc>Created with Sketch.</desc>
    <defs></defs>
    <g id="Case-Studies" stroke="none" stroke-width="1" fill="none" fill-rule="evenodd">
        <g id="02CWorks_Pager_DesktopHD" transform="translate(-330.000000, -1092.000000)" fill="#EF7521">
            <g id="Client-Context" transform="translate(330.000000, 1092.000000)">
                <path d="M13.8678519,26.2598663 C10.98612,26.2598663 8.39852118,25.1400756 6.49355403,23.2870096 L6.49355403,36.8802092 L-4.08562073e-14,36.8802092 L-4.08562073e-14,0.634437663 L6.2016283,0.634437663 L6.2016283,3.26495205 C8.15460592,1.267771 10.8409849,0.0502470212 13.8678519,0.0502470212 C20.4590824,0.0502470212 25.8296329,5.70110433 25.8296329,13.1061901 C25.8296329,20.558762 20.4590824,26.2598663 13.8678519,26.2598663 L13.8678519,26.2598663 Z M12.9390976,6.04179018 C9.37583776,6.04179018 6.49355403,9.20845684 6.49355403,13.1061901 C6.49355403,17.0525138 9.37583776,20.267771 12.9390976,20.267771 C16.5034611,20.267771 19.3840893,17.1988375 19.3840893,13.1061901 C19.3840893,9.0621331 16.5034611,6.04179018 12.9390976,6.04179018 L12.9390976,6.04179018 Z M53.8578141,25.7231619 L47.7075074,25.7231619 L47.7075074,23.0451613 C45.7523224,25.0903807 43.067599,26.2598663 39.991066,26.2598663 C33.4489496,26.2598663 28.0298368,20.6079047 28.0298368,13.2028189 C28.0298368,5.75024702 33.4489496,0.0982853822 39.991066,0.0982853822 C43.067599,0.0982853822 45.7523224,1.267771 47.7075074,3.31354257 L47.7075074,0.634437663 L53.8578141,0.634437663 L53.8578141,25.7231619 L53.8578141,25.7231619 Z M40.9678307,6.04179018 C37.4034672,6.04179018 34.5233908,9.15986632 34.5233908,13.2519616 C34.5233908,17.2468759 37.4034672,20.3152572 40.9678307,20.3152572 C44.5327461,20.3152572 47.4122706,17.1496949 47.4122706,13.2519616 C47.4122706,9.25594304 44.5327461,6.04179018 40.9678307,6.04179018 L40.9678307,6.04179018 Z M83.331828,24.4570474 C83.331828,32.7875618 78.3514315,38 70.2956057,38 C64.2898822,38 59.0661224,34.5417902 58.0882539,29.2316187 L65.1689705,29.2316187 C65.9983928,31.2299041 68.5368774,32.0079047 70.2956057,32.0079047 C74.8350785,32.0079047 76.8868362,29.0389131 76.8868362,24.5531241 L76.8868362,23.3361523 C74.9344105,25.1892183 72.3948222,26.2598663 69.4650798,26.2598663 C62.9218598,26.2598663 57.5038506,20.6079047 57.5038506,13.2028189 C57.5038506,5.75024702 62.9218598,0.0982853822 69.4650798,0.0982853822 C72.5405091,0.0982853822 75.1783257,1.267771 77.1804175,3.31354257 L77.1804175,0.634437663 L83.331828,0.634437663 L83.331828,24.4570474 L83.331828,24.4570474 Z M70.4412927,6.04179018 C66.8780329,6.04179018 63.9968528,9.15986632 63.9968528,13.2519616 C63.9968528,17.2468759 66.8780329,20.3152572 70.4412927,20.3152572 C74.0067599,20.3152572 76.8868362,17.1496949 76.8868362,13.2519616 C76.8868362,9.25594304 74.0067599,6.04179018 70.4412927,6.04179018 L70.4412927,6.04179018 Z M93.324076,15.6881139 C94.1551538,18.7581517 96.595962,20.6598082 99.6217253,20.6598082 C101.770608,20.6598082 103.870928,19.732723 104.945921,17.7333333 L111.830733,17.7333333 C110.365585,22.8513514 105.921582,26.3084568 99.6713913,26.3084568 C92.5928821,26.3084568 86.7819597,20.4621331 86.7819597,13.2028189 C86.7819597,5.94405696 92.5928821,0 99.6713913,0 C107.0937,0 113.246766,5.75024702 112.319115,15.6881139 L93.324076,15.6881139 L93.324076,15.6881139 Z M105.921582,10.4248765 C105.14017,7.50392328 102.69881,5.65306597 99.6217253,5.65306597 C96.6936384,5.65306597 94.3488512,7.50392328 93.4217525,10.4248765 L105.921582,10.4248765 L105.921582,10.4248765 Z M130.235298,6.38302819 C127.647147,6.09093287 125.498265,6.38302819 124.034221,7.94234234 C122.667303,9.35367626 122.421732,11.4011043 122.421732,13.3977332 L122.421732,25.7231619 L115.976188,25.7231619 L115.976188,0.634437663 L122.129806,0.634437663 L122.129806,3.11862831 C124.179357,0.585847137 127.206224,-0.340685847 130.235298,0.147428073 L130.235298,6.38302819 L130.235298,6.38302819 Z" id="Fill-2"></path>
            </g>
        </g>
    </g>
</svg>