<?xml version="1.0" encoding="UTF-8"?>
<svg width="73px" height="73px" viewBox="0 0 73 73" version="1.1" xmlns="http://www.w3.org/2000/svg" xmlns:xlink="http://www.w3.org/1999/xlink">
    <!-- Generator: Sketch 43.2 (39069) - http://www.bohemiancoding.com/sketch -->
    <title>Resolution Icon</title>
    <desc>Created with Sketch.</desc>
    <defs></defs>
    <g id="Case-Studies" stroke="none" stroke-width="1" fill="none" fill-rule="evenodd">
        <g id="02AWorks_Swiftbank_DesktopHD" transform="translate(-731.000000, -3519.000000)" stroke="#1D1D1D">
            <g id="Challenges/-Impact" transform="translate(313.000000, 3372.000000)">
                <g id="Resolution-Icon" transform="translate(419.000000, 133.000000)">
                    <g>
                        <circle id="Oval-2" stroke-width="2" cx="35" cy="50" r="30"></circle>
                        <g id="Group-2" transform="translate(0.000000, 45.000000)" fill="#FFFFFF">
                            <g id="Group" transform="translate(30.000000, 30.000000)">
                                <circle id="Oval-3-Copy-2" cx="5.5" cy="5.5" r="5.5"></circle>
                            </g>
                            <g id="Group" transform="translate(35.500000, 5.500000) rotate(90.000000) translate(-35.500000, -5.500000) translate(30.000000, -30.000000)">
                                <circle id="Oval-3-Copy" cx="5.5" cy="5.5" r="5.5"></circle>
                                <circle id="Oval-3-Copy-2" cx="5.5" cy="65.5" r="5.5"></circle>
                            </g>
                        </g>
                        <g id="Group-2" transform="translate(35.500000, 29.286797) rotate(45.000000) translate(-35.500000, -29.286797) translate(15.000000, 8.786797)" fill="#FFFFFF">
                            <g id="Group" transform="translate(30.000000, -0.000000)">
                                <circle id="Oval-3-Copy" cx="5.5" cy="5.5" r="5.5"></circle>
                            </g>
                            <g id="Group" transform="translate(5.500000, 35.500000) rotate(90.000000) translate(-5.500000, -35.500000) translate(-0.000000, 30.000000)">
                                <circle id="Oval-3-Copy-2" cx="5.5" cy="5.5" r="5.5"></circle>
                            </g>
                        </g>
                        <polygon id="Triangle-Copy-2" fill="#FFFFFF" points="35 14 42 26 28 26"></polygon>
                        <polygon id="Triangle-Copy-3" fill="#FFFFFF" transform="translate(15.000000, 69.000000) rotate(-15.000000) translate(-15.000000, -69.000000) " points="15 63 22 75 8 75"></polygon>
                        <polygon id="Triangle-Copy-4" fill="#FFFFFF" transform="translate(56.382656, 68.697032) rotate(16.000000) translate(-56.382656, -68.697032) " points="56.382656 62.6970317 63.382656 74.6970317 49.382656 74.6970317"></polygon>
                    </g>
                </g>
            </g>
        </g>
    </g>
</svg>