<?xml version="1.0" standalone="no"?>
<!DOCTYPE svg PUBLIC "-//W3C//DTD SVG 20010904//EN"
 "http://www.w3.org/TR/2001/REC-SVG-20010904/DTD/svg10.dtd">
<svg version="1.0" xmlns="http://www.w3.org/2000/svg"
 width="700.000000pt" height="700.000000pt" viewBox="0 0 700.000000 700.000000"
 preserveAspectRatio="xMidYMid meet">
<metadata>
Created by potrace 1.11, written by Peter Selinger 2001-2013
</metadata>
<g transform="translate(0.000000,700.000000) scale(0.100000,-0.100000)"
fill="#000000" stroke="none">
<path d="M4208 6485 c-2 -2 -19 -7 -38 -10 -199 -35 -384 -118 -515 -231 -87
-74 -100 -88 -148 -147 -136 -168 -243 -413 -274 -625 -3 -18 -37 -88 -77
-155 -40 -67 -144 -241 -231 -387 -87 -146 -166 -280 -177 -299 l-19 -33 58 7
c31 4 64 8 73 10 8 1 40 6 70 10 30 4 62 9 70 10 8 2 38 6 65 9 28 4 77 11
110 16 33 5 80 12 105 15 25 3 56 8 70 10 14 2 48 6 75 10 28 3 77 10 110 15
163 25 159 26 178 -15 l18 -37 -38 -41 c-20 -23 -39 -44 -42 -47 -3 -3 -31
-34 -61 -70 -30 -36 -59 -70 -65 -76 -5 -6 -32 -37 -60 -70 -27 -32 -68 -79
-90 -104 -22 -25 -60 -70 -85 -99 -25 -29 -55 -64 -67 -77 -45 -49 -131 -161
-174 -224 -24 -36 -46 -67 -49 -70 -3 -3 -17 -23 -31 -45 -25 -38 -131 -166
-203 -245 -18 -19 -58 -66 -91 -105 -32 -38 -61 -72 -64 -75 -3 -3 -31 -34
-61 -70 -30 -36 -67 -78 -81 -95 -15 -16 -118 -136 -229 -265 -111 -129 -216
-251 -234 -270 -35 -39 -78 -89 -151 -175 -27 -32 -68 -79 -90 -105 -22 -25
-62 -72 -90 -104 -27 -33 -55 -64 -60 -70 -6 -6 -37 -42 -70 -81 -33 -38 -64
-75 -70 -81 -33 -37 -126 -145 -215 -249 -94 -110 -190 -220 -215 -249 -6 -6
-66 -76 -135 -156 -68 -80 -131 -152 -139 -161 -9 -9 -34 -38 -56 -64 -22 -27
-49 -59 -60 -71 -11 -13 -41 -47 -66 -76 -100 -116 -320 -371 -438 -508 -69
-80 -128 -146 -133 -148 -16 -7 -7 -22 63 -106 66 -81 71 -85 92 -72 56 35
553 318 642 366 188 100 249 135 375 210 158 96 407 260 576 380 l150 108 191
6 c202 6 203 6 363 73 19 8 46 19 60 25 52 21 86 36 110 46 14 6 48 21 75 33
165 71 449 224 588 316 88 58 254 178 267 193 3 3 25 21 50 40 44 35 101 85
168 148 24 23 42 32 56 28 105 -25 532 -27 661 -2 11 2 43 7 70 10 160 23 428
108 600 191 580 280 1002 758 1205 1365 23 71 58 198 65 241 3 19 8 45 10 59
3 14 7 34 9 46 31 163 31 492 0 664 -3 19 -8 46 -10 60 -14 96 -81 349 -95
360 -3 3 -14 28 -24 55 -33 87 -132 274 -200 376 -67 101 -194 256 -259 318
-20 19 -36 38 -36 41 0 3 15 5 33 4 17 -1 95 -4 172 -6 l139 -3 7 35 c4 19 10
63 14 98 3 34 8 68 11 76 5 14 -2 16 -361 100 -104 24 -356 83 -560 131 -374
87 -571 131 -629 140 -17 3 -47 8 -66 11 -39 7 -386 14 -392 9z"/>
</g>
</svg>
