<?xml version="1.0" standalone="no"?>
<!DOCTYPE svg PUBLIC "-//W3C//DTD SVG 20010904//EN"
 "http://www.w3.org/TR/2001/REC-SVG-20010904/DTD/svg10.dtd">
<svg version="1.0" xmlns="http://www.w3.org/2000/svg"
 width="700.000000pt" height="700.000000pt" viewBox="0 0 700.000000 700.000000"
 preserveAspectRatio="xMidYMid meet">
<metadata>
Created by potrace 1.11, written by Peter Selinger 2001-2013
</metadata>
<g transform="translate(0.000000,700.000000) scale(0.100000,-0.100000)"
fill="#000000" stroke="none">
<path d="M4460 5333 c-178 -29 -377 -159 -523 -341 -33 -41 -33 -49 -4 -57 73
-23 127 -103 126 -190 l0 -50 -28 60 c-33 72 -74 109 -143 130 -29 8 -55 15
-59 15 -10 0 -271 -150 -287 -164 -10 -10 36 -33 230 -113 l243 -101 26 -70
c45 -121 97 -201 188 -292 88 -87 155 -133 258 -177 l58 -24 -52 5 c-107 10
-259 90 -337 176 -21 24 -60 77 -87 119 l-49 76 0 -100 0 -101 -442 -158
c-475 -170 -616 -231 -898 -393 -495 -284 -928 -613 -1294 -982 -61 -61 -108
-113 -105 -116 26 -26 512 -75 745 -75 444 0 929 127 1302 341 270 155 451
319 625 564 80 114 90 126 83 105 -2 -8 -12 -40 -22 -70 -23 -77 -97 -222
-153 -302 -196 -281 -458 -481 -798 -608 -51 -19 -93 -38 -93 -43 0 -14 185
-129 295 -182 631 -306 1395 -199 1915 269 271 244 468 584 540 931 63 309 46
612 -54 910 -39 115 -109 261 -166 345 -109 160 -296 296 -490 358 -132 42
-172 47 -345 46 -185 0 -288 -17 -416 -68 l-64 -25 44 40 c61 55 170 105 283
130 78 18 114 20 223 16 172 -8 290 -41 440 -123 l50 -27 -49 44 c-211 190
-408 281 -605 278 -47 -1 -97 -4 -111 -6z m204 -664 c53 -63 21 -145 -61 -156
-37 -5 -45 -2 -77 29 -23 23 -63 44 -118 64 l-83 29 86 3 c80 3 88 5 114 32
23 24 37 30 71 30 35 0 47 -5 68 -31z m-1163 -1310 c56 -6 120 -16 141 -23
l40 -11 -63 -89 c-166 -233 -401 -429 -629 -526 -187 -79 -442 -113 -687 -92
-119 10 -209 26 -222 38 -6 5 78 124 147 208 234 281 555 461 885 496 112 11
276 11 388 -1z"/>
<path d="M3205 3306 c-147 -25 -262 -79 -387 -181 -78 -65 -220 -236 -206
-250 9 -9 152 -24 228 -25 241 0 435 82 610 259 64 65 148 177 139 185 -9 9
-175 26 -244 25 -38 -1 -101 -7 -140 -13z"/>
<path d="M1550 3234 c-388 -139 -895 -322 -1127 -405 l-423 -152 0 -50 0 -50
210 6 c277 9 519 30 830 73 l255 35 65 63 c236 229 576 507 815 666 88 58 104
70 90 69 -6 0 -327 -115 -715 -255z"/>
</g>
</svg>
