<?xml version="1.0" encoding="UTF-8"?>
<svg width="100px" height="100px" viewBox="0 0 100 100" version="1.1" xmlns="http://www.w3.org/2000/svg" xmlns:xlink="http://www.w3.org/1999/xlink">
    <!-- Generator: Sketch 43.2 (39069) - http://www.bohemiancoding.com/sketch -->
    <title>service_icon</title>
    <desc>Created with Sketch.</desc>
    <defs></defs>
    <g id="Main-Pages" stroke="none" stroke-width="1" fill="none" fill-rule="evenodd">
        <g id="01About_DesktopHD-Copy" transform="translate(-646.000000, -1808.000000)">
            <g id="Design-Method-Toolkit" transform="translate(325.000000, 1736.000000)">
                <g id="Service" transform="translate(321.000000, 72.000000)">
                    <g id="service_icon">
                        <rect id="Rectangle-5" fill="#FFFFFF" x="0" y="0" width="100" height="100"></rect>
                        <path d="M70.6049206,78.2372881 C70.6049206,77.6374237 70.0858095,77.1525424 69.4461905,77.1525424 L68.2874603,77.1525424 C66.7787937,77.1525424 65.5041905,76.2424407 65.0244762,74.9830508 L65.97,74.9830508 C68.5261587,74.9830508 70.6049206,73.0359322 70.6049206,70.6440678 C70.6049206,70.3566102 70.4820952,70.08 70.2654127,69.8771525 L69.2874603,63.0508475 C69.2874603,48.0021695 55.6088145,35.5720678 39.989132,33.9482034 L39.989132,30.0575395 C40.6536027,30.0575395 41.0391448,29.9946042 42.0347421,29.9467351 C43.7869402,29.8624881 44.9417388,28.8001534 44.9417388,27.0292488 C44.9417388,24.6362996 43.5272107,24 41.9790511,24 L32.052374,24 C30.4532842,24 28.9907361,24.6362996 28.9907361,27.0292488 C28.9907361,28.8124601 30.277696,29.9516011 32.0854138,29.9516011 C32.7002522,29.9516011 33.3446462,30.0575395 33.9959708,30.0575395 L33.9959708,33.9482034 C18.3751296,35.5731525 4.71603175,48.0021695 4.71603175,63.0508475 L3.73807937,69.8771525 C3.5202381,70.08 3.39857143,70.3566102 3.39857143,70.6440678 C3.39857143,73.0370169 5.47733333,74.9830508 8.03349206,74.9830508 L8.97901587,74.9830508 C8.49930159,76.2424407 7.22469841,77.1525424 5.71603175,77.1525424 L4.55730159,77.1525424 C3.91768254,77.1525424 3.39857143,77.6374237 3.39857143,78.2372881 C3.39857143,78.2372881 1.08111111,83.3312542 1.08111111,84.7457627 C1.08111111,86.5399322 2.6407619,88 4.55730159,88 L69.4461905,88 C71.3627302,88 72.922381,86.5399322 72.922381,84.7457627 C72.922381,83.3312542 70.6049206,78.2372881 70.6049206,78.2372881 Z M31,27 C31,26.4485 31.0764,26 32.4,26 L41.6,26 C42.9236,26 43,26.4485 43,27 C43,27.5515 42.9236,28 41.6,28 L32.4,28 C31.0764,28 31,27.5515 31,27 Z M35.8430159,29.9591956 L38.1604762,29.9591956 L38.1604762,33.9157514 C37.7757778,33.9027345 37.3899206,33.9157514 37.001746,33.9157514 C36.6135714,33.9157514 36.2277143,33.9027345 35.8430159,33.9157514 L35.8430159,29.9591956 Z M5.75774603,71.0541017 L7.03349206,63.0508475 C7.03349206,48.0976271 21.0286508,35.9322034 37.001746,35.9322034 C52.9748413,35.9322034 66.97,48.0976271 66.97,63.0508475 L68.245746,71.0541017 C68.0406508,72.055322 67.0986032,72.8135593 65.97,72.8135593 L8.03349206,72.8135593 C6.90488889,72.8135593 5.96284127,72.055322 5.75774603,71.0541017 Z M11.3926508,74.9830508 L62.6108413,74.9830508 C62.7869683,75.7890169 63.1693492,76.5190508 63.6815079,77.1525424 L10.3208254,77.1525424 C10.8341429,76.5190508 11.2165238,75.7890169 11.3926508,74.9830508 Z M69.4461905,85.8305085 L4.55730159,85.8305085 C3.91884127,85.8305085 3.39857143,85.3445424 3.39857143,84.7457627 C3.39857143,84.1469831 5.71603175,79.3220339 5.71603175,79.3220339 L68.2874603,79.3220339 C68.2874603,79.3220339 70.6049206,84.1469831 70.6049206,84.7457627 C70.6049206,85.3445424 70.0846508,85.8305085 69.4461905,85.8305085 Z" id="Shape" fill="#000000" fill-rule="nonzero"></path>
                        <rect id="Rectangle-path" fill="#000000" fill-rule="nonzero" x="12.6684127" y="81.4915254" width="2.31746032" height="2.16949153"></rect>
                        <rect id="Rectangle-path" fill="#000000" fill-rule="nonzero" x="8.03349206" y="81.4915254" width="2.31746032" height="2.16949153"></rect>
                        <rect id="Rectangle-path" fill="#000000" fill-rule="nonzero" x="17.3033333" y="81.4915254" width="2.31746032" height="2.16949153"></rect>
                        <ellipse id="Oval-6" stroke="#000000" transform="translate(50.500000, 47.000000) rotate(-50.000000) translate(-50.500000, -47.000000) " cx="50.5" cy="47" rx="2.5" ry="5"></ellipse>
                    </g>
                </g>
            </g>
        </g>
    </g>
</svg>