<?xml version="1.0" encoding="UTF-8"?>
<svg width="22px" height="15px" viewBox="0 0 22 15" version="1.1" xmlns="http://www.w3.org/2000/svg" xmlns:xlink="http://www.w3.org/1999/xlink">
    <!-- Generator: Sketch 43.1 (39012) - http://www.bohemiancoding.com/sketch -->
    <title>twitter_icon</title>
    <desc>Created with Sketch.</desc>
    <defs>
        <polygon id="path-1" points="1.08420217e-19 0.0002 1.08420217e-19 15.0087 21.5406 15.0087 21.5406 0.0002 0 0.0002"></polygon>
    </defs>
    <g id="Page-1" stroke="none" stroke-width="1" fill="none" fill-rule="evenodd">
        <g id="00Home_DesktopHD-Copy" transform="translate(-599.000000, -1614.000000)">
            <g id="twitter_icon" transform="translate(599.000000, 1614.000000)">
                <mask id="mask-2" fill="white">
                    <use xlink:href="#path-1"></use>
                </mask>
                <g id="Clip-2"></g>
                <path d="M18.9976,7.8822 C18.8166,8.8022 18.3596,9.7632 17.6336,10.7702 C16.0626,12.6912 14.1556,13.9602 11.9066,14.5782 L11.8666,14.5782 C9.5506,15.2022 7.2276,15.1482 4.9016,14.4172 C2.8746,13.6512 1.2356,12.4282 -0.0004,10.7372 C1.2326,11.7042 2.3666,12.1872 3.4256,12.1932 L3.4536,12.1802 C5.1906,12.2962 6.6756,11.7502 7.9046,10.5422 C7.9096,10.5352 7.9196,10.5292 7.9236,10.5222 L7.8856,10.4762 C7.1736,10.5072 6.6896,10.2932 6.4196,9.8302 C6.3456,9.5212 6.4196,9.2512 6.6476,9.0242 C6.7756,8.8762 6.9696,8.7412 7.2186,8.6212 C5.9656,8.6542 5.0976,8.2182 4.6066,7.3062 C4.9816,6.9032 5.4656,6.7092 6.0516,6.7412 L6.0586,6.7222 C4.5666,6.3182 3.7796,5.5932 3.7076,4.5372 C4.0936,4.4252 4.4856,4.3642 4.8946,4.3712 L4.8946,4.3512 C3.7356,3.6932 3.1506,2.7862 3.1556,1.6502 C4.2246,1.9822 5.2786,2.4042 6.3176,2.9132 C7.2716,3.3162 8.0986,3.7322 8.8056,4.1682 C9.4016,4.5052 9.8986,4.9212 10.3146,5.4182 L10.3356,5.3972 L10.4406,5.3192 C10.7316,4.2222 11.2156,3.1492 11.9066,2.0812 L11.9206,2.0482 C12.1866,1.6582 12.5376,1.2302 12.9726,0.7652 C13.1826,0.5562 13.4246,0.3612 13.6986,0.1812 C13.7526,0.2152 13.6716,0.4022 13.4556,0.7512 C14.0346,0.2622 14.5846,0.0142 15.0956,0.0002 C15.2086,0.1132 15.0116,0.3362 14.4906,0.6512 C14.9006,0.4962 15.3566,0.3952 15.8536,0.3362 C16.0686,0.3612 16.1446,0.4692 16.0836,0.6642 C15.9066,0.9052 15.3266,1.1282 14.3376,1.3422 C14.3306,1.3422 14.3226,1.3422 14.3186,1.3492 L14.3506,1.4232 C15.4366,1.3812 16.3836,1.7262 17.1896,2.4442 C17.2046,2.4582 17.2196,2.4702 17.2316,2.4762 C18.1876,3.3972 18.7346,4.4102 18.8906,5.5262 C19.7356,5.8282 20.5876,5.8202 21.4556,5.4982 C21.2206,6.1322 20.4896,6.5112 19.2446,6.6482 C19.2396,6.6392 19.2396,6.6392 19.2396,6.6482 L19.2396,6.7672 C20.3756,6.9912 21.1396,7.0302 21.5266,6.8952 L21.5406,6.9162 C21.0186,7.6022 20.1716,7.9232 18.9976,7.8822" id="Fill-1" fill="#4A4A4A" fill-rule="evenodd" mask="url(#mask-2)"></path>
            </g>
        </g>
    </g>
</svg>