<?xml version="1.0" encoding="UTF-8"?>
<svg width="56px" height="56px" viewBox="0 0 56 56" version="1.1" xmlns="http://www.w3.org/2000/svg" xmlns:xlink="http://www.w3.org/1999/xlink">
    <!-- Generator: Sketch 43.2 (39069) - http://www.bohemiancoding.com/sketch -->
    <title>twitter_icon</title>
    <desc>Created with Sketch.</desc>
    <defs></defs>
    <g id="Main-Pages" stroke="none" stroke-width="1" fill="none" fill-rule="evenodd">
        <g id="01About_DesktopHD-Copy" transform="translate(-623.000000, -4526.000000)">
            <g id="Footer" transform="translate(623.000000, 4304.000000)">
                <g id="twitter_icon" transform="translate(0.000000, 222.000000)">
                    <circle id="Oval" fill="#FFFFFF" cx="28" cy="28" r="28"></circle>
                    <path d="M41.222,27.905 C40.925,29.409 40.179,30.979 38.994,32.624 C36.425,35.764 33.309,37.838 29.633,38.848 L29.567,38.848 C25.781,39.868 21.984,39.78 18.185,38.584 C14.872,37.333 12.194,35.334 10.175,32.571 C12.183,34.151 14.039,34.94 15.772,34.95 L15.816,34.93 C18.658,35.118 21.084,34.227 23.092,32.25 C23.103,32.241 23.115,32.231 23.125,32.219 L23.06,32.143 C21.896,32.196 21.105,31.844 20.667,31.088 C20.546,30.583 20.667,30.143 21.04,29.77 C21.248,29.53 21.567,29.309 21.972,29.112 C19.921,29.166 18.506,28.454 17.703,26.963 C18.318,26.303 19.107,25.987 20.063,26.04 L20.074,26.008 C17.637,25.348 16.353,24.163 16.233,22.44 C16.859,22.254 17.506,22.155 18.175,22.166 L18.175,22.133 C16.277,21.057 15.322,19.577 15.333,17.719 C17.078,18.26 18.8,18.95 20.502,19.784 C22.06,20.442 23.41,21.122 24.562,21.834 C25.54,22.385 26.351,23.065 27.032,23.877 L27.065,23.844 L27.24,23.715 C27.713,21.924 28.503,20.168 29.633,18.424 L29.655,18.368 C30.093,17.733 30.665,17.032 31.377,16.272 C31.718,15.932 32.113,15.614 32.563,15.319 C32.651,15.374 32.519,15.68 32.168,16.25 C33.112,15.45 34.011,15.045 34.845,15.022 C35.032,15.208 34.703,15.571 33.858,16.086 C34.527,15.833 35.273,15.668 36.086,15.571 C36.437,15.614 36.558,15.788 36.459,16.108 C36.174,16.502 35.218,16.866 33.605,17.217 C33.595,17.217 33.584,17.217 33.574,17.227 L33.629,17.348 C35.406,17.28 36.953,17.842 38.27,19.016 C38.293,19.04 38.314,19.059 38.336,19.071 C39.894,20.575 40.794,22.231 41.047,24.055 C42.429,24.547 43.823,24.538 45.24,24.008 C44.855,25.043 43.659,25.665 41.629,25.887 C41.617,25.874 41.617,25.874 41.617,25.887 L41.617,26.084 C43.472,26.448 44.723,26.512 45.359,26.291 L45.382,26.327 C44.525,27.446 43.142,27.971 41.222,27.905 Z M27.625,3 C14.025,3 3,14.028 3,27.625 C3,41.225 14.025,52.249 27.625,52.249 C41.224,52.249 52.248,41.225 52.248,27.625 C52.248,14.028 41.224,3 27.625,3 L27.625,3 Z" id="Fill-188" fill="#FBCF17"></path>
                </g>
            </g>
        </g>
    </g>
</svg>